<svg xmlns="http://www.w3.org/2000/svg" viewBox="0 0 182.23 299.63">
  <defs>
    <style>
      .cls-1 { fill: #636363; }
      .cls-2 { fill: #fdd900; }
    </style>
  </defs>
  <path class="cls-1" d="M105.73,257.64c-8.05,5.55-17.79,8.81-28.31,8.81-5.42,0-10.64-.86-15.53-2.46-3.16-1.03-6.17-2.49-9.05-4.14l-3.34-1.92L0,229.56v33.46l49.65,28.46,3.2,1.83c2.76,1.58,5.64,2.98,8.66,3.96,4.68,1.53,9.67,2.35,14.86,2.35,11.07,0,21.25-3.77,29.36-10.08v-31.91Z"/>
  <path class="cls-1" d="M52.85,235.54c2.76,1.58,5.64,2.98,8.66,3.96,4.68,1.53,9.67,2.35,14.86,2.35,11.07,0,21.25-3.77,29.36-10.08v-31.91c-8.05,5.55-17.79,8.81-28.31,8.81-5.42,0-10.64-.86-15.53-2.46-3.16-1.03-6.17-2.49-9.05-4.14l-3.34-1.92L0,171.79v33.46l49.65,28.46,3.2,1.83Z"/>
  <path class="cls-2" d="M182.23,0L0,65.83v48.19h0v33.46l49.65,28.46,3.2,1.83c2.76,1.58,5.64,2.98,8.66,3.96,4.68,1.53,9.67,2.35,14.86,2.35,11.07,0,21.25-3.77,29.36-10.08v-31.91c-8.05,5.55-17.79,8.81-28.31,8.81-5.42,0-10.64-.86-15.53-2.46-3.16-1.03-6.17-2.49-9.05-4.14l-3.34-1.92L6.2,117.57l20.68-9.79v-23.09l128.47-46.41v261.34h26.88V0Z"/>
</svg>
