<?xml version="1.0" encoding="UTF-8"?>
<svg id="Layer_1" data-name="Layer 1" xmlns="http://www.w3.org/2000/svg" viewBox="0 0 672.52 299.63">
  <defs>
    <style>
      .cls-1 {
        fill: #636363;
      }

      .cls-2 {
        fill: #fdd900;
      }
    </style>
  </defs>
  <g>
    <path class="cls-1" d="M105.73,257.64c-8.05,5.55-17.79,8.81-28.31,8.81-5.42,0-10.64-.86-15.53-2.46-3.16-1.03-6.17-2.49-9.05-4.14l-3.34-1.92L0,229.56v33.46l49.65,28.46,3.2,1.83c2.76,1.58,5.64,2.98,8.66,3.96,4.68,1.53,9.67,2.35,14.86,2.35,11.07,0,21.25-3.77,29.36-10.08v-31.91Z"/>
    <path class="cls-1" d="M52.85,235.54c2.76,1.58,5.64,2.98,8.66,3.96,4.68,1.53,9.67,2.35,14.86,2.35,11.07,0,21.25-3.77,29.36-10.08v-31.91c-8.05,5.55-17.79,8.81-28.31,8.81-5.42,0-10.64-.86-15.53-2.46-3.16-1.03-6.17-2.49-9.05-4.14l-3.34-1.92L0,171.79v33.46l49.65,28.46,3.2,1.83Z"/>
    <path class="cls-2" d="M182.23,0L0,65.83v48.19h0v33.46l49.65,28.46,3.2,1.83c2.76,1.58,5.64,2.98,8.66,3.96,4.68,1.53,9.67,2.35,14.86,2.35,11.07,0,21.25-3.77,29.36-10.08v-31.91c-8.05,5.55-17.79,8.81-28.31,8.81-5.42,0-10.64-.86-15.53-2.46-3.16-1.03-6.17-2.49-9.05-4.14l-3.34-1.92L6.2,117.57l20.68-9.79v-23.09l128.47-46.41v261.34h26.88V0Z"/>
  </g>
  <g>
    <path class="cls-1" d="M273.57,230.71c-2.87-2.75-7.14-4.27-10.86-4.27-9.15,0-14.71,6.96-14.71,15.74,0,7.02,4.09,14.28,14.71,14.28,3.36,0,6.28-.73,9.64-3.42v-7.57h-10.92v-7.2h18.31v18c-4.21,4.82-9.52,7.69-17.02,7.69-16.05,0-22.58-10.56-22.58-21.78,0-12.02,7.5-23.13,22.58-23.13,5.74,0,11.47,2.2,15.87,6.53l-5,5.13Z"/>
    <path class="cls-1" d="M333.32,262.99h-9.58l-12.45-14.28h-7.75v14.28h-8.05v-42.78c6.77,0,13.55.06,20.32.06,10.07.06,15.38,6.77,15.38,14.16,0,5.86-2.68,11.78-10.8,13.42l12.94,14.58v.55ZM303.54,227.78v13.67h12.27c5.13,0,7.32-3.42,7.32-6.83s-2.26-6.83-7.32-6.83h-12.27Z"/>
    <path class="cls-1" d="M388.31,241.88c-.12,11.04-6.89,22.09-21.91,22.09s-21.97-10.8-21.97-22.03,7.2-22.52,21.97-22.52,22.03,11.29,21.91,22.46ZM352.36,242.06c.18,7.02,3.97,14.52,14.04,14.52s13.85-7.57,13.97-14.58c.12-7.2-3.91-15.26-13.97-15.26s-14.22,8.12-14.04,15.32Z"/>
    <path class="cls-1" d="M441.4,220.34v24.47c0,12.63-7.75,19.1-18.49,19.1s-18.98-6.22-18.98-19.1v-24.47h7.99v24.47c0,7.69,4.39,11.78,11.05,11.78s10.43-4.45,10.43-11.78v-24.47h7.99Z"/>
    <path class="cls-1" d="M479.12,250.42h-12.08v12.57h-8.06v-42.72c6.71,0,13.43-.06,20.14-.06,20.87,0,20.93,30.21,0,30.21ZM467.04,243.04h12.08c10.31,0,10.25-15.13,0-15.13h-12.08v15.13Z"/>
    <path class="cls-1" d="M541.8,262.99h-31.97v-42.72h31.97v7.81h-23.98v9.82h23.13v7.51h-23.13v9.64h23.98v7.93Z"/>
    <path class="cls-1" d="M606.12,230.59c-1.46-2.44-5.49-4.76-10.13-4.76-5.98,0-8.85,2.5-8.85,5.68,0,3.72,4.39,4.76,9.52,5.37,8.91,1.1,17.21,3.42,17.21,13.61,0,9.52-8.42,13.61-17.94,13.61-8.73,0-15.44-2.68-18.61-10.5l6.71-3.48c1.89,4.7,6.83,6.77,12.02,6.77s9.82-1.77,9.82-6.41c0-4.03-4.21-5.67-9.89-6.28-8.72-1.04-16.78-3.36-16.78-12.94,0-8.79,8.67-12.39,16.54-12.45,6.65,0,13.55,1.89,16.78,8.48l-6.41,3.3Z"/>
    <path class="cls-1" d="M660.13,254.94h-22.34l-3.66,8.05h-8.72l19.16-42.72h8.79l19.16,42.72h-8.79l-3.6-8.05ZM648.96,229.24l-7.93,18.19h15.87l-7.93-18.19Z"/>
  </g>
  <rect class="cls-2" x="240.13" y="191.25" width="432.39" height="4.14"/>
  <path class="cls-1" d="M613.18,35.54h-27.21l-59.34,132.29h27.03l11.34-24.95.14-.32h68.89l.14.32,11.15,24.95h27.21l-59.34-132.29ZM575.97,117.62l23.6-54.3,23.6,54.3h-47.2Z"/>
  <polygon class="cls-1" points="310.25 92.61 268.86 35.73 240.13 35.73 240.13 168.02 265.08 168.02 265.08 71.83 307.22 129.47 312.14 129.47 355.22 72.01 355.22 112.79 355.22 168.02 380.17 168.02 380.17 112.79 380.17 35.73 351.63 35.73 310.25 92.61"/>
  <path class="cls-1" d="M497.71,99.42c12.28-5.48,17.2-15.31,17.2-25.51,0-26.65-19.46-38.36-45.55-38.36h-62.74v132.29h62.74c27.4,0,49.51-9.45,49.51-38.93,0-8.32-5.67-24.76-21.17-29.48ZM469.37,144.59h-38.18V58.22h38.18c15.87,0,20.79,10.2,20.79,16.25,0,7.56-5.1,14.17-20.79,14.17h-23.35v21.92h23.35c10.2,0,24.76,6.24,24.76,18.14s-14.55,15.88-24.76,15.88Z"/>
</svg>